<?xml version="1.0" encoding="UTF-8" standalone="no"?>
<!DOCTYPE svg PUBLIC "-//W3C//DTD SVG 1.1//EN" "http://www.w3.org/Graphics/SVG/1.1/DTD/svg11.dtd">
<svg width="100%" height="100%" viewBox="0 0 200 80" version="1.1" xmlns="http://www.w3.org/2000/svg" xmlns:xlink="http://www.w3.org/1999/xlink" xml:space="preserve" xmlns:serif="http://www.serif.com/" style="fill-rule:evenodd;clip-rule:evenodd;stroke-linejoin:round;stroke-miterlimit:2;">
    <g id="アートボード1" transform="matrix(0.8,0,0,0.8,0,0)">
        <rect x="0" y="0" width="250" height="100" style="fill:none;"/>
        <g transform="matrix(1.25,0,0,1.25,-145.758,-14.5361)">
            <g transform="matrix(30,0,0,30,117.585,62.124)">
                <path d="M0.401,-0.37L0.401,-0.372C0.507,-0.387 0.596,-0.445 0.596,-0.541C0.596,-0.644 0.505,-0.699 0.344,-0.699L0.065,-0.699L0.065,0L0.342,0C0.528,0 0.633,-0.073 0.633,-0.193C0.633,-0.307 0.535,-0.362 0.401,-0.37ZM0.218,-0.684L0.301,-0.684C0.396,-0.684 0.437,-0.612 0.437,-0.526C0.437,-0.437 0.393,-0.368 0.314,-0.368L0.218,-0.368L0.218,-0.684ZM0.294,-0.016C0.273,-0.016 0.232,-0.018 0.218,-0.022L0.218,-0.353L0.327,-0.353C0.415,-0.353 0.467,-0.283 0.467,-0.179C0.467,-0.076 0.415,-0.016 0.294,-0.016L0.294,-0.016Z" style="fill:rgb(47,19,0);fill-rule:nonzero;"/>
            </g>
            <g transform="matrix(30,0,0,30,137.625,62.124)">
                <path d="M0.442,-0.699C0.461,-0.623 0.571,-0.528 0.571,-0.394L0.571,-0.248C0.571,-0.093 0.499,-0.022 0.388,-0.022C0.276,-0.022 0.21,-0.096 0.21,-0.253L0.21,-0.699L0.057,-0.699L0.057,-0.255C0.057,-0.087 0.143,0.011 0.33,0.011C0.512,0.011 0.59,-0.083 0.59,-0.253L0.59,-0.394C0.59,-0.528 0.601,-0.623 0.62,-0.699L0.442,-0.699Z" style="fill:rgb(47,19,0);fill-rule:nonzero;"/>
            </g>
            <g transform="matrix(30,0,0,30,157.365,62.124)">
                <path d="M0.545,-0.699L0.027,-0.699L0.013,-0.526L0.015,-0.526C0.092,-0.591 0.138,-0.682 0.195,-0.682L0.21,-0.682L0.21,0L0.363,0L0.363,-0.682L0.378,-0.682C0.435,-0.682 0.481,-0.591 0.557,-0.526L0.559,-0.526L0.545,-0.699Z" style="fill:rgb(47,19,0);fill-rule:nonzero;"/>
            </g>
            <g transform="matrix(30,0,0,30,174.555,62.124)">
                <path d="M0.545,-0.699L0.027,-0.699L0.013,-0.526L0.015,-0.526C0.092,-0.591 0.138,-0.682 0.195,-0.682L0.21,-0.682L0.21,0L0.363,0L0.363,-0.682L0.378,-0.682C0.435,-0.682 0.481,-0.591 0.557,-0.526L0.559,-0.526L0.545,-0.699Z" style="fill:rgb(47,19,0);fill-rule:nonzero;"/>
            </g>
            <g transform="matrix(30,0,0,30,191.745,62.124)">
                <path d="M0.526,-0.139C0.439,-0.08 0.343,-0.018 0.262,-0.018L0.218,-0.018L0.218,-0.356L0.243,-0.356C0.346,-0.356 0.416,-0.338 0.439,-0.315L0.441,-0.315L0.441,-0.407L0.439,-0.407C0.416,-0.385 0.346,-0.373 0.243,-0.373L0.218,-0.373L0.218,-0.682L0.257,-0.682C0.339,-0.682 0.43,-0.618 0.51,-0.569L0.512,-0.569L0.496,-0.699L0.065,-0.699L0.065,0L0.506,0L0.528,-0.139L0.526,-0.139Z" style="fill:rgb(47,19,0);fill-rule:nonzero;"/>
            </g>
            <g transform="matrix(30,0,0,30,208.455,62.124)">
                <path d="M0.418,-0.343C0.512,-0.373 0.584,-0.433 0.584,-0.526C0.584,-0.643 0.484,-0.699 0.285,-0.699L0.065,-0.699L0.065,0L0.218,0L0.218,-0.319L0.248,-0.319C0.268,-0.319 0.268,-0.319 0.284,-0.318L0.411,0L0.588,0L0.418,-0.343ZM0.291,-0.344C0.273,-0.344 0.237,-0.346 0.218,-0.35L0.218,-0.684L0.277,-0.684C0.386,-0.684 0.437,-0.619 0.437,-0.518C0.437,-0.418 0.381,-0.344 0.291,-0.344L0.291,-0.344Z" style="fill:rgb(47,19,0);fill-rule:nonzero;"/>
            </g>
            <g transform="matrix(30,0,0,30,226.995,62.124)">
                <path d="M0.336,-0.415L0.288,-0.435C0.217,-0.466 0.142,-0.502 0.142,-0.58C0.142,-0.642 0.187,-0.696 0.271,-0.696C0.357,-0.696 0.413,-0.587 0.455,-0.538L0.485,-0.663C0.456,-0.679 0.372,-0.711 0.284,-0.711C0.138,-0.711 0.044,-0.624 0.044,-0.508C0.044,-0.382 0.153,-0.33 0.22,-0.3L0.268,-0.28C0.336,-0.25 0.422,-0.213 0.422,-0.127C0.422,-0.06 0.372,-0.004 0.282,-0.004C0.198,-0.004 0.116,-0.1 0.073,-0.168L0.036,-0.037C0.065,-0.021 0.176,0.011 0.269,0.011C0.432,0.011 0.519,-0.089 0.519,-0.202C0.519,-0.331 0.413,-0.382 0.336,-0.415L0.336,-0.415Z" style="fill:rgb(47,19,0);fill-rule:nonzero;"/>
            </g>
            <g transform="matrix(30,0,0,30,253.785,62.124)">
                <path d="M0.469,-0.179C0.369,-0.101 0.289,-0.018 0.231,-0.018L0.218,-0.018L0.218,-0.699L0.065,-0.699L0.065,0L0.438,0L0.471,-0.179L0.469,-0.179Z" style="fill:rgb(47,19,0);fill-rule:nonzero;"/>
            </g>
            <g transform="matrix(30,0,0,30,268.275,62.124)">
                <path d="M0.731,-0.533C0.624,-0.731 0.423,-0.769 0.241,-0.671C0.048,-0.567 -0.026,-0.366 0.082,-0.167C0.189,0.032 0.389,0.07 0.572,-0.029C0.764,-0.133 0.839,-0.333 0.731,-0.533L0.731,-0.533ZM0.574,-0.047C0.455,0.016 0.323,-0.071 0.224,-0.256C0.126,-0.437 0.118,-0.587 0.24,-0.653C0.358,-0.717 0.49,-0.629 0.59,-0.444C0.688,-0.263 0.695,-0.113 0.574,-0.047L0.574,-0.047Z" style="fill:rgb(47,19,0);fill-rule:nonzero;"/>
            </g>
            <g transform="matrix(30,0,0,30,292.665,62.124)">
                <path d="M0.415,-0.317L0.426,-0.3L0.563,-0.3L0.563,-0.039C0.531,-0.019 0.477,-0.006 0.432,-0.006C0.288,-0.006 0.201,-0.148 0.201,-0.352C0.201,-0.56 0.267,-0.696 0.409,-0.696C0.515,-0.696 0.527,-0.57 0.563,-0.492L0.685,-0.599C0.627,-0.657 0.531,-0.711 0.414,-0.711C0.196,-0.711 0.035,-0.57 0.035,-0.345C0.035,-0.117 0.188,0.011 0.428,0.011C0.542,0.011 0.627,-0.021 0.7,-0.069L0.7,-0.317L0.415,-0.317Z" style="fill:rgb(47,19,0);fill-rule:nonzero;"/>
            </g>
        </g>
    </g>
</svg>
